<mxfile host="app.diagrams.net" modified="2023-10-13T16:39:23.134Z" agent="Mozilla/5.0 (Macintosh; Intel Mac OS X 10_15_7) AppleWebKit/537.36 (KHTML, like Gecko) Chrome/117.0.0.0 Safari/537.36" etag="goJz5ZHEpFQgKj7wg76d" version="22.0.4" type="google">
  <diagram name="Page-1" id="aoa5garHafPrv9ZFQpfl">
    <mxGraphModel grid="1" page="1" gridSize="10" guides="1" tooltips="1" connect="1" arrows="1" fold="1" pageScale="1" pageWidth="850" pageHeight="1100" math="0" shadow="0">
      <root>
        <mxCell id="0" />
        <mxCell id="1" parent="0" />
        <mxCell id="iryr8i_eR14eTgJGWwGp-48" value="Edge" style="whiteSpace=wrap;strokeWidth=2;verticalAlign=top;" vertex="1" parent="1">
          <mxGeometry x="102" y="208.5" width="650" height="305" as="geometry" />
        </mxCell>
        <mxCell id="iryr8i_eR14eTgJGWwGp-46" value="" style="group" connectable="0" vertex="1" parent="1">
          <mxGeometry x="147" y="278" width="125" height="74" as="geometry" />
        </mxCell>
        <mxCell id="6" value="Data Capture" style="whiteSpace=wrap;strokeWidth=2;verticalAlign=top;" vertex="1" parent="iryr8i_eR14eTgJGWwGp-46">
          <mxGeometry width="125" height="74" as="geometry" />
        </mxCell>
        <mxCell id="7" value="Images" style="whiteSpace=wrap;strokeWidth=2;" vertex="1" parent="iryr8i_eR14eTgJGWwGp-46">
          <mxGeometry x="25" y="31" width="79" height="36" as="geometry" />
        </mxCell>
        <mxCell id="iryr8i_eR14eTgJGWwGp-45" value="" style="group" connectable="0" vertex="1" parent="1">
          <mxGeometry x="578" y="286" width="125" height="150" as="geometry" />
        </mxCell>
        <mxCell id="iryr8i_eR14eTgJGWwGp-32" value="Training" style="whiteSpace=wrap;strokeWidth=2;verticalAlign=top;" vertex="1" parent="iryr8i_eR14eTgJGWwGp-45">
          <mxGeometry width="125" height="150" as="geometry" />
        </mxCell>
        <mxCell id="iryr8i_eR14eTgJGWwGp-39" value="Train" style="whiteSpace=wrap;strokeWidth=2;" vertex="1" parent="iryr8i_eR14eTgJGWwGp-45">
          <mxGeometry x="23" y="66" width="79" height="36" as="geometry" />
        </mxCell>
        <mxCell id="iryr8i_eR14eTgJGWwGp-40" value="Tag: train, validation" style="whiteSpace=wrap;strokeWidth=2;" vertex="1" parent="iryr8i_eR14eTgJGWwGp-45">
          <mxGeometry x="23" y="30" width="79" height="36" as="geometry" />
        </mxCell>
        <mxCell id="iryr8i_eR14eTgJGWwGp-41" value="Store New Model" style="whiteSpace=wrap;strokeWidth=2;" vertex="1" parent="iryr8i_eR14eTgJGWwGp-45">
          <mxGeometry x="23" y="102" width="79" height="36" as="geometry" />
        </mxCell>
        <mxCell id="iryr8i_eR14eTgJGWwGp-43" value="" style="group" connectable="0" vertex="1" parent="1">
          <mxGeometry x="147" y="370" width="125" height="110" as="geometry" />
        </mxCell>
        <mxCell id="iryr8i_eR14eTgJGWwGp-34" value="" style="group" connectable="0" vertex="1" parent="iryr8i_eR14eTgJGWwGp-43">
          <mxGeometry width="125" height="110" as="geometry" />
        </mxCell>
        <mxCell id="2" value="Inference" style="whiteSpace=wrap;strokeWidth=2;verticalAlign=top;" vertex="1" parent="iryr8i_eR14eTgJGWwGp-34">
          <mxGeometry width="125" height="109.99999999999999" as="geometry" />
        </mxCell>
        <mxCell id="iryr8i_eR14eTgJGWwGp-36" value="Model Inference" style="whiteSpace=wrap;strokeWidth=2;" vertex="1" parent="iryr8i_eR14eTgJGWwGp-43">
          <mxGeometry x="23" y="30" width="79" height="36" as="geometry" />
        </mxCell>
        <mxCell id="iryr8i_eR14eTgJGWwGp-37" value="Load Model" style="whiteSpace=wrap;strokeWidth=2;" vertex="1" parent="iryr8i_eR14eTgJGWwGp-43">
          <mxGeometry x="23" y="66" width="79" height="36" as="geometry" />
        </mxCell>
        <mxCell id="8" value="Timeseries Database&#xa;ReductStore" style="whiteSpace=wrap;strokeWidth=2;verticalAlign=top;" vertex="1" parent="1">
          <mxGeometry x="327" y="260" width="200" height="220" as="geometry" />
        </mxCell>
        <mxCell id="12" value="Latest" style="curved=1;startArrow=none;endArrow=block;exitX=1;exitY=0.25;exitDx=0;exitDy=0;entryX=0;entryY=0.75;entryDx=0;entryDy=0;" edge="1" parent="1" source="9" target="iryr8i_eR14eTgJGWwGp-39">
          <mxGeometry x="-0.0015" relative="1" as="geometry">
            <Array as="points" />
            <mxPoint x="561.0000000000002" y="563.5" as="sourcePoint" />
            <mxPoint x="617.6049999999998" y="408.5600000000002" as="targetPoint" />
            <mxPoint as="offset" />
          </mxGeometry>
        </mxCell>
        <mxCell id="9" value="Model Bucket" style="whiteSpace=wrap;strokeWidth=2;align=center;verticalAlign=middle;fontSize=12;horizontal=1;fontStyle=0" vertex="1" parent="1">
          <mxGeometry x="352" y="400" width="150" height="70" as="geometry" />
        </mxCell>
        <mxCell id="iryr8i_eR14eTgJGWwGp-19" value="Data Bucket" style="whiteSpace=wrap;strokeWidth=2;align=center;verticalAlign=middle;fontSize=12;horizontal=1;fontStyle=0" vertex="1" parent="1">
          <mxGeometry x="352" y="310" width="150" height="70" as="geometry" />
        </mxCell>
        <mxCell id="11" value="Range" style="curved=1;startArrow=none;endArrow=block;exitX=1;exitY=0.75;exitDx=0;exitDy=0;entryX=0;entryY=0.25;entryDx=0;entryDy=0;" edge="1" parent="1" source="iryr8i_eR14eTgJGWwGp-19" target="iryr8i_eR14eTgJGWwGp-39">
          <mxGeometry relative="1" as="geometry">
            <Array as="points" />
            <mxPoint x="558.0000000000002" y="597.5" as="sourcePoint" />
            <mxPoint x="617.21" y="368.5600000000002" as="targetPoint" />
          </mxGeometry>
        </mxCell>
        <mxCell id="iryr8i_eR14eTgJGWwGp-24" value="New" style="curved=1;startArrow=none;endArrow=block;entryX=1;entryY=0.75;entryDx=0;entryDy=0;exitX=0;exitY=0.5;exitDx=0;exitDy=0;" edge="1" parent="1" source="iryr8i_eR14eTgJGWwGp-41" target="9">
          <mxGeometry x="-0.0015" relative="1" as="geometry">
            <Array as="points" />
            <mxPoint x="619.027" y="434.31999999999994" as="sourcePoint" />
            <mxPoint x="805" y="570" as="targetPoint" />
            <mxPoint as="offset" />
          </mxGeometry>
        </mxCell>
        <mxCell id="iryr8i_eR14eTgJGWwGp-26" value="Tag" style="curved=1;startArrow=none;endArrow=block;entryX=1;entryY=0.25;entryDx=0;entryDy=0;exitX=0;exitY=0.5;exitDx=0;exitDy=0;" edge="1" parent="1" source="iryr8i_eR14eTgJGWwGp-40" target="iryr8i_eR14eTgJGWwGp-19">
          <mxGeometry relative="1" as="geometry">
            <Array as="points" />
            <mxPoint x="618.316" y="343.28" as="sourcePoint" />
            <mxPoint x="693" y="540" as="targetPoint" />
          </mxGeometry>
        </mxCell>
        <mxCell id="iryr8i_eR14eTgJGWwGp-28" value="Latest" style="curved=1;startArrow=none;endArrow=block;exitX=0;exitY=0.5;exitDx=0;exitDy=0;entryX=1;entryY=0.25;entryDx=0;entryDy=0;" edge="1" parent="1" source="iryr8i_eR14eTgJGWwGp-19" target="iryr8i_eR14eTgJGWwGp-36">
          <mxGeometry x="0.0803" y="-4" relative="1" as="geometry">
            <Array as="points" />
            <mxPoint x="252" y="329" as="sourcePoint" />
            <mxPoint x="237" y="371.25" as="targetPoint" />
            <mxPoint as="offset" />
          </mxGeometry>
        </mxCell>
        <mxCell id="iryr8i_eR14eTgJGWwGp-29" value="Tag" style="curved=1;startArrow=none;endArrow=block;entryX=0;entryY=0.75;entryDx=0;entryDy=0;exitX=1;exitY=0.75;exitDx=0;exitDy=0;" edge="1" parent="1" source="iryr8i_eR14eTgJGWwGp-36" target="iryr8i_eR14eTgJGWwGp-19">
          <mxGeometry x="-0.0334" y="-2" relative="1" as="geometry">
            <Array as="points" />
            <mxPoint x="237" y="390" as="sourcePoint" />
            <mxPoint x="308" y="470" as="targetPoint" />
            <mxPoint as="offset" />
          </mxGeometry>
        </mxCell>
        <mxCell id="iryr8i_eR14eTgJGWwGp-30" value="Latest" style="curved=1;startArrow=none;endArrow=block;exitX=0;exitY=0.5;exitDx=0;exitDy=0;entryX=1;entryY=0.5;entryDx=0;entryDy=0;" edge="1" parent="1" source="9" target="iryr8i_eR14eTgJGWwGp-37">
          <mxGeometry x="-0.0015" relative="1" as="geometry">
            <Array as="points" />
            <mxPoint x="198" y="503" as="sourcePoint" />
            <mxPoint x="248" y="430" as="targetPoint" />
            <mxPoint as="offset" />
          </mxGeometry>
        </mxCell>
        <mxCell id="10" value="Store" style="curved=1;startArrow=none;endArrow=block;exitX=1;exitY=0.5;exitDx=0;exitDy=0;entryX=0;entryY=0.25;entryDx=0;entryDy=0;" edge="1" parent="1" source="7" target="iryr8i_eR14eTgJGWwGp-19">
          <mxGeometry relative="1" as="geometry">
            <Array as="points" />
            <mxPoint x="156" y="270" as="sourcePoint" />
            <mxPoint x="288" y="270" as="targetPoint" />
          </mxGeometry>
        </mxCell>
      </root>
    </mxGraphModel>
  </diagram>
</mxfile>
